<?xml version="1.0" encoding="UTF-8"?><!DOCTYPE svg PUBLIC "-//W3C//DTD SVG 1.1//EN" "http://www.w3.org/Graphics/SVG/1.1/DTD/svg11.dtd"><svg xmlns="http://www.w3.org/2000/svg" version="1.1"     width="150mm" height="150mm"     viewBox="0 0 28 28" preserveAspectRatio="none"     shape-rendering="crispEdges" stroke="none"><rect width=".81" height=".81" x="0" y="0" fill="#FEFCFE" /><rect width=".81" height=".81" x="1" y="0" fill="#FEFCFE" /><rect width=".81" height=".81" x="2" y="0" fill="#FEFCFE" /><rect width=".81" height=".81" x="3" y="0" fill="#FEFCFE" /><rect width=".81" height=".81" x="4" y="0" fill="#FEFCFE" /><rect width=".81" height=".81" x="5" y="0" fill="#FEFCFE" /><rect width=".81" height=".81" x="6" y="0" fill="#FEFCFE" /><rect width=".81" height=".81" x="7" y="0" fill="#FEFCFE" /><rect width=".81" height=".81" x="8" y="0" fill="#FEFCFE" /><rect width=".81" height=".81" x="9" y="0" fill="#FEFCFE" /><rect width=".81" height=".81" x="10" y="0" fill="#FEFCFE" /><rect width=".81" height=".81" x="11" y="0" fill="#FEFCFE" /><rect width=".81" height=".81" x="12" y="0" fill="#FEFCFE" /><rect width=".81" height=".81" x="13" y="0" fill="#FEFCFE" /><rect width=".81" height=".81" x="14" y="0" fill="#FEFCFE" /><rect width=".81" height=".81" x="15" y="0" fill="#FEFCFE" /><rect width=".81" height=".81" x="16" y="0" fill="#FEFCFE" /><rect width=".81" height=".81" x="17" y="0" fill="#FEFCFE" /><rect width=".81" height=".81" x="18" y="0" fill="#FEFCFE" /><rect width=".81" height=".81" x="19" y="0" fill="#FEFCFE" /><rect width=".81" height=".81" x="20" y="0" fill="#FEFCFE" /><rect width=".81" height=".81" x="21" y="0" fill="#FEFCFE" /><rect width=".81" height=".81" x="22" y="0" fill="#FEFCFE" /><rect width=".81" height=".81" x="23" y="0" fill="#FEFCFE" /><rect width=".81" height=".81" x="24" y="0" fill="#FEFCFE" /><rect width=".81" height=".81" x="25" y="0" fill="#FEFCFE" /><rect width=".81" height=".81" x="26" y="0" fill="#FEFCFE" /><rect width=".81" height=".81" x="27" y="0" fill="#FEFCFE" /><rect width=".81" height=".81" x="0" y="1" fill="#FEFCFE" /><rect width=".81" height=".81" x="1" y="1" fill="#FEFCFE" /><rect width=".81" height=".81" x="2" y="1" fill="#FEFCFE" /><rect width=".81" height=".81" x="3" y="1" fill="#FEFCFE" /><rect width=".81" height=".81" x="4" y="1" fill="#FEFCFE" /><rect width=".81" height=".81" x="5" y="1" fill="#FEFCFE" /><rect width=".81" height=".81" x="6" y="1" fill="#FEFCFE" /><rect width=".81" height=".81" x="7" y="1" fill="#FEFCFE" /><rect width=".81" height=".81" x="8" y="1" fill="#FEFCFE" /><rect width=".81" height=".81" x="9" y="1" fill="#FEFCFE" /><rect width=".81" height=".81" x="10" y="1" fill="#FEFCFE" /><rect width=".81" height=".81" x="11" y="1" fill="#FEFCFE" /><rect width=".81" height=".81" x="12" y="1" fill="#FEFCFE" /><rect width=".81" height=".81" x="13" y="1" fill="#FEFCFE" /><rect width=".81" height=".81" x="14" y="1" fill="#FEFCFE" /><rect width=".81" height=".81" x="15" y="1" fill="#FEFCFE" /><rect width=".81" height=".81" x="16" y="1" fill="#FEFCFE" /><rect width=".81" height=".81" x="17" y="1" fill="#FEFCFE" /><rect width=".81" height=".81" x="18" y="1" fill="#FEFCFE" /><rect width=".81" height=".81" x="19" y="1" fill="#FEFCFE" /><rect width=".81" height=".81" x="20" y="1" fill="#FEFCFE" /><rect width=".81" height=".81" x="21" y="1" fill="#FEFCFE" /><rect width=".81" height=".81" x="22" y="1" fill="#FEFCFE" /><rect width=".81" height=".81" x="23" y="1" fill="#FEFCFE" /><rect width=".81" height=".81" x="24" y="1" fill="#FEFCFE" /><rect width=".81" height=".81" x="25" y="1" fill="#FEFCFE" /><rect width=".81" height=".81" x="26" y="1" fill="#FEFCFE" /><rect width=".81" height=".81" x="27" y="1" fill="#FEFCFE" /><rect width=".81" height=".81" x="0" y="2" fill="#FEFCFE" /><rect width=".81" height=".81" x="1" y="2" fill="#FEFCFE" /><rect width=".81" height=".81" x="2" y="2" fill="#FEFCFE" /><rect width=".81" height=".81" x="3" y="2" fill="#FEFCFE" /><rect width=".81" height=".81" x="4" y="2" fill="#FEFCFE" /><rect width=".81" height=".81" x="5" y="2" fill="#FEFCFE" /><rect width=".81" height=".81" x="6" y="2" fill="#FEFCFE" /><rect width=".81" height=".81" x="7" y="2" fill="#FEFCFE" /><rect width=".81" height=".81" x="8" y="2" fill="#FEFCFE" /><rect width=".81" height=".81" x="9" y="2" fill="#FEFCFE" /><rect width=".81" height=".81" x="10" y="2" fill="#FEFCFE" /><rect width=".81" height=".81" x="11" y="2" fill="#FEFCFE" /><rect width=".81" height=".81" x="12" y="2" fill="#FEFCFE" /><rect width=".81" height=".81" x="13" y="2" fill="#FEFCFE" /><rect width=".81" height=".81" x="14" y="2" fill="#FEFCFE" /><rect width=".81" height=".81" x="15" y="2" fill="#FEFCFE" /><rect width=".81" height=".81" x="16" y="2" fill="#FEFCFE" /><rect width=".81" height=".81" x="17" y="2" fill="#FEFCFE" /><rect width=".81" height=".81" x="18" y="2" fill="#FEFCFE" /><rect width=".81" height=".81" x="19" y="2" fill="#FEFCFE" /><rect width=".81" height=".81" x="20" y="2" fill="#FEFCFE" /><rect width=".81" height=".81" x="21" y="2" fill="#FEFCFE" /><rect width=".81" height=".81" x="22" y="2" fill="#FEFCFE" /><rect width=".81" height=".81" x="23" y="2" fill="#FEFCFE" /><rect width=".81" height=".81" x="24" y="2" fill="#FEFCFE" /><rect width=".81" height=".81" x="25" y="2" fill="#FEFCFE" /><rect width=".81" height=".81" x="26" y="2" fill="#FEFCFE" /><rect width=".81" height=".81" x="27" y="2" fill="#FEFCFE" /><rect width=".81" height=".81" x="0" y="3" fill="#FEFCFE" /><rect width=".81" height=".81" x="1" y="3" fill="#FEFCFE" /><rect width=".81" height=".81" x="2" y="3" fill="#FEFCFE" /><rect width=".81" height=".81" x="3" y="3" fill="#FEFCFE" /><rect width=".81" height=".81" x="4" y="3" fill="#FEFCFE" /><rect width=".81" height=".81" x="5" y="3" fill="#FEFCFE" /><rect width=".81" height=".81" x="6" y="3" fill="#FEFCFE" /><rect width=".81" height=".81" x="7" y="3" fill="#FEFCFE" /><rect width=".81" height=".81" x="8" y="3" fill="#FEFCFE" /><rect width=".81" height=".81" x="9" y="3" fill="#FEFCFE" /><rect width=".81" height=".81" x="10" y="3" fill="#FEFCFE" /><rect width=".81" height=".81" x="11" y="3" fill="#FEFCFE" /><rect width=".81" height=".81" x="12" y="3" fill="#FEFCFE" /><rect width=".81" height=".81" x="13" y="3" fill="#FEFCFE" /><rect width=".81" height=".81" x="14" y="3" fill="#FEFCFE" /><rect width=".81" height=".81" x="15" y="3" fill="#FEFCFE" /><rect width=".81" height=".81" x="16" y="3" fill="#FEFCFE" /><rect width=".81" height=".81" x="17" y="3" fill="#FEFCFE" /><rect width=".81" height=".81" x="18" y="3" fill="#FEFCFE" /><rect width=".81" height=".81" x="19" y="3" fill="#FEFCFE" /><rect width=".81" height=".81" x="20" y="3" fill="#FEFCFE" /><rect width=".81" height=".81" x="21" y="3" fill="#FEFCFE" /><rect width=".81" height=".81" x="22" y="3" fill="#FEFCFE" /><rect width=".81" height=".81" x="23" y="3" fill="#FEFCFE" /><rect width=".81" height=".81" x="24" y="3" fill="#FEFCFE" /><rect width=".81" height=".81" x="25" y="3" fill="#FEFCFE" /><rect width=".81" height=".81" x="26" y="3" fill="#FEFCFE" /><rect width=".81" height=".81" x="27" y="3" fill="#FEFCFE" /><rect width=".81" height=".81" x="0" y="4" fill="#FEFCFE" /><rect width=".81" height=".81" x="1" y="4" fill="#FEFCFE" /><rect width=".81" height=".81" x="2" y="4" fill="#FEFCFE" /><rect width=".81" height=".81" x="3" y="4" fill="#FEFCFE" /><rect width=".81" height=".81" x="4" y="4" fill="#FEFCFE" /><rect width=".81" height=".81" x="5" y="4" fill="#FEFCFE" /><rect width=".81" height=".81" x="6" y="4" fill="#FEFCFE" /><rect width=".81" height=".81" x="7" y="4" fill="#FEFCFE" /><rect width=".81" height=".81" x="8" y="4" fill="#FEFCFE" /><rect width=".81" height=".81" x="9" y="4" fill="#FEFCFE" /><rect width=".81" height=".81" x="10" y="4" fill="#FEFCFE" /><rect width=".81" height=".81" x="11" y="4" fill="#FEFCFE" /><rect width=".81" height=".81" x="12" y="4" fill="#FEFCFE" /><rect width=".81" height=".81" x="13" y="4" fill="#FEFCFE" /><rect width=".81" height=".81" x="14" y="4" fill="#FEFCFE" /><rect width=".81" height=".81" x="15" y="4" fill="#FEFCFE" /><rect width=".81" height=".81" x="16" y="4" fill="#FEFCFE" /><rect width=".81" height=".81" x="17" y="4" fill="#FEFCFE" /><rect width=".81" height=".81" x="18" y="4" fill="#FEFCFE" /><rect width=".81" height=".81" x="19" y="4" fill="#FEFCFE" /><rect width=".81" height=".81" x="20" y="4" fill="#FEFCFE" /><rect width=".81" height=".81" x="21" y="4" fill="#FEFCFE" /><rect width=".81" height=".81" x="22" y="4" fill="#FEFCFE" /><rect width=".81" height=".81" x="23" y="4" fill="#FEFCFE" /><rect width=".81" height=".81" x="24" y="4" fill="#FEFCFE" /><rect width=".81" height=".81" x="25" y="4" fill="#FEFCFE" /><rect width=".81" height=".81" x="26" y="4" fill="#FEFCFE" /><rect width=".81" height=".81" x="27" y="4" fill="#FEFCFE" /><rect width=".81" height=".81" x="0" y="5" fill="#FEFCFE" /><rect width=".81" height=".81" x="1" y="5" fill="#FEFCFE" /><rect width=".81" height=".81" x="2" y="5" fill="#FEFCFE" /><rect width=".81" height=".81" x="3" y="5" fill="#FEFCFE" /><rect width=".81" height=".81" x="4" y="5" fill="#FEFCFE" /><rect width=".81" height=".81" x="5" y="5" fill="#FEFCFE" /><rect width=".81" height=".81" x="6" y="5" fill="#FEFCFE" /><rect width=".81" height=".81" x="7" y="5" fill="#FEFCFE" /><rect width=".81" height=".81" x="8" y="5" fill="#FEFCFE" /><rect width=".81" height=".81" x="9" y="5" fill="#FEFCFE" /><rect width=".81" height=".81" x="10" y="5" fill="#FEFCFE" /><rect width=".81" height=".81" x="11" y="5" fill="#FEFCFE" /><rect width=".81" height=".81" x="12" y="5" fill="#FEFCFE" /><rect width=".81" height=".81" x="13" y="5" fill="#FEFCFE" /><rect width=".81" height=".81" x="14" y="5" fill="#FEFCFE" /><rect width=".81" height=".81" x="15" y="5" fill="#FEFCFE" /><rect width=".81" height=".81" x="16" y="5" fill="#FEFCFE" /><rect width=".81" height=".81" x="17" y="5" fill="#FEFCFE" /><rect width=".81" height=".81" x="18" y="5" fill="#FEFCFE" /><rect width=".81" height=".81" x="19" y="5" fill="#FEFCFE" /><rect width=".81" height=".81" x="20" y="5" fill="#FEFCFE" /><rect width=".81" height=".81" x="21" y="5" fill="#FEFCFE" /><rect width=".81" height=".81" x="22" y="5" fill="#FEFCFE" /><rect width=".81" height=".81" x="23" y="5" fill="#FEFCFE" /><rect width=".81" height=".81" x="24" y="5" fill="#FEFCFE" /><rect width=".81" height=".81" x="25" y="5" fill="#FEFCFE" /><rect width=".81" height=".81" x="26" y="5" fill="#FEFCFE" /><rect width=".81" height=".81" x="27" y="5" fill="#FEFCFE" /><rect width=".81" height=".81" x="0" y="6" fill="#FEFCFE" /><rect width=".81" height=".81" x="1" y="6" fill="#FEFCFE" /><rect width=".81" height=".81" x="2" y="6" fill="#FEFCFE" /><rect width=".81" height=".81" x="3" y="6" fill="#FEFCFE" /><rect width=".81" height=".81" x="4" y="6" fill="#FEFCFE" /><rect width=".81" height=".81" x="5" y="6" fill="#FEFCFE" /><rect width=".81" height=".81" x="6" y="6" fill="#FEFCFE" /><rect width=".81" height=".81" x="7" y="6" fill="#FEFCFE" /><rect width=".81" height=".81" x="8" y="6" fill="#FEFCFE" /><rect width=".81" height=".81" x="9" y="6" fill="#FEFCFE" /><rect width=".81" height=".81" x="10" y="6" fill="#FEFCFE" /><rect width=".81" height=".81" x="11" y="6" fill="#FEFCFE" /><rect width=".81" height=".81" x="12" y="6" fill="#FEFCFE" /><rect width=".81" height=".81" x="13" y="6" fill="#FEFCFE" /><rect width=".81" height=".81" x="14" y="6" fill="#FEFCFE" /><rect width=".81" height=".81" x="15" y="6" fill="#FEFCFE" /><rect width=".81" height=".81" x="16" y="6" fill="#FEFCFE" /><rect width=".81" height=".81" x="17" y="6" fill="#FEFCFE" /><rect width=".81" height=".81" x="18" y="6" fill="#FEFCFE" /><rect width=".81" height=".81" x="19" y="6" fill="#FEFCFE" /><rect width=".81" height=".81" x="20" y="6" fill="#FEFCFE" /><rect width=".81" height=".81" x="21" y="6" fill="#FEFCFE" /><rect width=".81" height=".81" x="22" y="6" fill="#FEFCFE" /><rect width=".81" height=".81" x="23" y="6" fill="#FEFCFE" /><rect width=".81" height=".81" x="24" y="6" fill="#FEFCFE" /><rect width=".81" height=".81" x="25" y="6" fill="#FEFCFE" /><rect width=".81" height=".81" x="26" y="6" fill="#FEFCFE" /><rect width=".81" height=".81" x="27" y="6" fill="#FEFCFE" /><rect width=".81" height=".81" x="0" y="7" fill="#FEFCFE" /><rect width=".81" height=".81" x="1" y="7" fill="#FEFCFE" /><rect width=".81" height=".81" x="2" y="7" fill="#FEFCFE" /><rect width=".81" height=".81" x="3" y="7" fill="#FEFCFE" /><rect width=".81" height=".81" x="4" y="7" fill="#FEFCFE" /><rect width=".81" height=".81" x="5" y="7" fill="#FEFCFE" /><rect width=".81" height=".81" x="6" y="7" fill="#FEFCFE" /><rect width=".81" height=".81" x="7" y="7" fill="#FEFCFE" /><rect width=".81" height=".81" x="8" y="7" fill="#FEFCFE" /><rect width=".81" height=".81" x="9" y="7" fill="#FEFCFE" /><rect width=".81" height=".81" x="10" y="7" fill="#FEFCFE" /><rect width=".81" height=".81" x="11" y="7" fill="#FEFCFE" /><rect width=".81" height=".81" x="12" y="7" fill="#FEFCFE" /><rect width=".81" height=".81" x="13" y="7" fill="#FDFCFF" /><rect width=".81" height=".81" x="14" y="7" fill="#FDFCFF" /><rect width=".81" height=".81" x="15" y="7" fill="#FFD7D7" /><rect width=".81" height=".81" x="16" y="7" fill="#FFA7A7" /><rect width=".81" height=".81" x="17" y="7" fill="#FFB8B8" /><rect width=".81" height=".81" x="18" y="7" fill="#FFF6F6" /><rect width=".81" height=".81" x="19" y="7" fill="#FBFBFF" /><rect width=".81" height=".81" x="20" y="7" fill="#FEFCFE" /><rect width=".81" height=".81" x="21" y="7" fill="#FEFCFE" /><rect width=".81" height=".81" x="22" y="7" fill="#FEFCFE" /><rect width=".81" height=".81" x="23" y="7" fill="#FEFCFE" /><rect width=".81" height=".81" x="24" y="7" fill="#FEFCFE" /><rect width=".81" height=".81" x="25" y="7" fill="#FEFCFE" /><rect width=".81" height=".81" x="26" y="7" fill="#FEFCFE" /><rect width=".81" height=".81" x="27" y="7" fill="#FEFCFE" /><rect width=".81" height=".81" x="0" y="8" fill="#FEFCFE" /><rect width=".81" height=".81" x="1" y="8" fill="#FEFCFE" /><rect width=".81" height=".81" x="2" y="8" fill="#FEFCFE" /><rect width=".81" height=".81" x="3" y="8" fill="#FEFCFE" /><rect width=".81" height=".81" x="4" y="8" fill="#FEFCFE" /><rect width=".81" height=".81" x="5" y="8" fill="#FEFCFE" /><rect width=".81" height=".81" x="6" y="8" fill="#FEFCFE" /><rect width=".81" height=".81" x="7" y="8" fill="#FEFCFE" /><rect width=".81" height=".81" x="8" y="8" fill="#FEFCFE" /><rect width=".81" height=".81" x="9" y="8" fill="#FEFCFE" /><rect width=".81" height=".81" x="10" y="8" fill="#FEFCFE" /><rect width=".81" height=".81" x="11" y="8" fill="#FFF9F9" /><rect width=".81" height=".81" x="12" y="8" fill="#FFF4F4" /><rect width=".81" height=".81" x="13" y="8" fill="#FFE2E2" /><rect width=".81" height=".81" x="14" y="8" fill="#FFD7D7" /><rect width=".81" height=".81" x="15" y="8" fill="#FFCCCC" /><rect width=".81" height=".81" x="16" y="8" fill="#FFA9A9" /><rect width=".81" height=".81" x="17" y="8" fill="#FFBABA" /><rect width=".81" height=".81" x="18" y="8" fill="#FFE4E4" /><rect width=".81" height=".81" x="19" y="8" fill="#FFF0F0" /><rect width=".81" height=".81" x="20" y="8" fill="#D9D9FF" /><rect width=".81" height=".81" x="21" y="8" fill="#E1E1FF" /><rect width=".81" height=".81" x="22" y="8" fill="#FDFCFE" /><rect width=".81" height=".81" x="23" y="8" fill="#FEFCFE" /><rect width=".81" height=".81" x="24" y="8" fill="#FEFCFE" /><rect width=".81" height=".81" x="25" y="8" fill="#FEFCFE" /><rect width=".81" height=".81" x="26" y="8" fill="#FEFCFE" /><rect width=".81" height=".81" x="27" y="8" fill="#FEFCFE" /><rect width=".81" height=".81" x="0" y="9" fill="#FEFCFE" /><rect width=".81" height=".81" x="1" y="9" fill="#FEFCFE" /><rect width=".81" height=".81" x="2" y="9" fill="#FEFCFE" /><rect width=".81" height=".81" x="3" y="9" fill="#FEFCFE" /><rect width=".81" height=".81" x="4" y="9" fill="#FEFCFE" /><rect width=".81" height=".81" x="5" y="9" fill="#FEFCFE" /><rect width=".81" height=".81" x="6" y="9" fill="#FEFCFE" /><rect width=".81" height=".81" x="7" y="9" fill="#FEFCFE" /><rect width=".81" height=".81" x="8" y="9" fill="#FEFCFE" /><rect width=".81" height=".81" x="9" y="9" fill="#FFF9F9" /><rect width=".81" height=".81" x="10" y="9" fill="#F8F8FF" /><rect width=".81" height=".81" x="11" y="9" fill="#E6E6FF" /><rect width=".81" height=".81" x="12" y="9" fill="#FFF9F9" /><rect width=".81" height=".81" x="13" y="9" fill="#FFD9D9" /><rect width=".81" height=".81" x="14" y="9" fill="#FFECEC" /><rect width=".81" height=".81" x="15" y="9" fill="#FFD5D5" /><rect width=".81" height=".81" x="16" y="9" fill="#FFDCDC" /><rect width=".81" height=".81" x="17" y="9" fill="#FFC7C7" /><rect width=".81" height=".81" x="18" y="9" fill="#FFAFAF" /><rect width=".81" height=".81" x="19" y="9" fill="#FFC7C7" /><rect width=".81" height=".81" x="20" y="9" fill="#ECECFF" /><rect width=".81" height=".81" x="21" y="9" fill="#FAFAFF" /><rect width=".81" height=".81" x="22" y="9" fill="#F3F3FF" /><rect width=".81" height=".81" x="23" y="9" fill="#FEFCFE" /><rect width=".81" height=".81" x="24" y="9" fill="#FEFCFE" /><rect width=".81" height=".81" x="25" y="9" fill="#FEFCFE" /><rect width=".81" height=".81" x="26" y="9" fill="#FEFCFE" /><rect width=".81" height=".81" x="27" y="9" fill="#FEFCFE" /><rect width=".81" height=".81" x="0" y="10" fill="#FEFCFE" /><rect width=".81" height=".81" x="1" y="10" fill="#FEFCFE" /><rect width=".81" height=".81" x="2" y="10" fill="#FEFCFE" /><rect width=".81" height=".81" x="3" y="10" fill="#FEFCFE" /><rect width=".81" height=".81" x="4" y="10" fill="#FEFCFE" /><rect width=".81" height=".81" x="5" y="10" fill="#FEFCFE" /><rect width=".81" height=".81" x="6" y="10" fill="#FEFCFE" /><rect width=".81" height=".81" x="7" y="10" fill="#FEFCFE" /><rect width=".81" height=".81" x="8" y="10" fill="#FDFCFE" /><rect width=".81" height=".81" x="9" y="10" fill="#DBDBFF" /><rect width=".81" height=".81" x="10" y="10" fill="#CDCDFF" /><rect width=".81" height=".81" x="11" y="10" fill="#B7B7FF" /><rect width=".81" height=".81" x="12" y="10" fill="#F4F4FF" /><rect width=".81" height=".81" x="13" y="10" fill="#FBFBFF" /><rect width=".81" height=".81" x="14" y="10" fill="#FEFCFD" /><rect width=".81" height=".81" x="15" y="10" fill="#FEFCFE" /><rect width=".81" height=".81" x="16" y="10" fill="#FEFCFE" /><rect width=".81" height=".81" x="17" y="10" fill="#FFE7E7" /><rect width=".81" height=".81" x="18" y="10" fill="#FDFCFE" /><rect width=".81" height=".81" x="19" y="10" fill="#F9F9FF" /><rect width=".81" height=".81" x="20" y="10" fill="#FFD9D9" /><rect width=".81" height=".81" x="21" y="10" fill="#FFCFCF" /><rect width=".81" height=".81" x="22" y="10" fill="#FFD3D3" /><rect width=".81" height=".81" x="23" y="10" fill="#FFFCFD" /><rect width=".81" height=".81" x="24" y="10" fill="#FEFCFE" /><rect width=".81" height=".81" x="25" y="10" fill="#FEFCFE" /><rect width=".81" height=".81" x="26" y="10" fill="#FEFCFE" /><rect width=".81" height=".81" x="27" y="10" fill="#FEFCFE" /><rect width=".81" height=".81" x="0" y="11" fill="#FEFCFE" /><rect width=".81" height=".81" x="1" y="11" fill="#FEFCFE" /><rect width=".81" height=".81" x="2" y="11" fill="#FEFCFE" /><rect width=".81" height=".81" x="3" y="11" fill="#FEFCFE" /><rect width=".81" height=".81" x="4" y="11" fill="#FEFCFE" /><rect width=".81" height=".81" x="5" y="11" fill="#FEFCFE" /><rect width=".81" height=".81" x="6" y="11" fill="#FEFCFD" /><rect width=".81" height=".81" x="7" y="11" fill="#FFEEEE" /><rect width=".81" height=".81" x="8" y="11" fill="#E6E6FF" /><rect width=".81" height=".81" x="9" y="11" fill="#8383FF" /><rect width=".81" height=".81" x="10" y="11" fill="#8080FF" /><rect width=".81" height=".81" x="11" y="11" fill="#DBDBFF" /><rect width=".81" height=".81" x="12" y="11" fill="#FCFCFF" /><rect width=".81" height=".81" x="13" y="11" fill="#FEFCFE" /><rect width=".81" height=".81" x="14" y="11" fill="#FEFCFE" /><rect width=".81" height=".81" x="15" y="11" fill="#FEFCFE" /><rect width=".81" height=".81" x="16" y="11" fill="#FEFCFE" /><rect width=".81" height=".81" x="17" y="11" fill="#C2C2FF" /><rect width=".81" height=".81" x="18" y="11" fill="#EEEEFF" /><rect width=".81" height=".81" x="19" y="11" fill="#F3F3FF" /><rect width=".81" height=".81" x="20" y="11" fill="#FFF7F7" /><rect width=".81" height=".81" x="21" y="11" fill="#FFD9D9" /><rect width=".81" height=".81" x="22" y="11" fill="#FFF8F8" /><rect width=".81" height=".81" x="23" y="11" fill="#FFFCFD" /><rect width=".81" height=".81" x="24" y="11" fill="#FEFCFE" /><rect width=".81" height=".81" x="25" y="11" fill="#FEFCFE" /><rect width=".81" height=".81" x="26" y="11" fill="#FEFCFE" /><rect width=".81" height=".81" x="27" y="11" fill="#FEFCFE" /><rect width=".81" height=".81" x="0" y="12" fill="#FEFCFE" /><rect width=".81" height=".81" x="1" y="12" fill="#FEFCFE" /><rect width=".81" height=".81" x="2" y="12" fill="#FEFCFE" /><rect width=".81" height=".81" x="3" y="12" fill="#FEFCFE" /><rect width=".81" height=".81" x="4" y="12" fill="#FEFCFE" /><rect width=".81" height=".81" x="5" y="12" fill="#FEFCFE" /><rect width=".81" height=".81" x="6" y="12" fill="#FDFCFF" /><rect width=".81" height=".81" x="7" y="12" fill="#DBDBFF" /><rect width=".81" height=".81" x="8" y="12" fill="#E3E3FF" /><rect width=".81" height=".81" x="9" y="12" fill="#C6C6FF" /><rect width=".81" height=".81" x="10" y="12" fill="#E0E0FF" /><rect width=".81" height=".81" x="11" y="12" fill="#FEFCFE" /><rect width=".81" height=".81" x="12" y="12" fill="#FEFCFE" /><rect width=".81" height=".81" x="13" y="12" fill="#FEFCFE" /><rect width=".81" height=".81" x="14" y="12" fill="#FEFCFE" /><rect width=".81" height=".81" x="15" y="12" fill="#FDFCFE" /><rect width=".81" height=".81" x="16" y="12" fill="#F8F8FF" /><rect width=".81" height=".81" x="17" y="12" fill="#FFFCFD" /><rect width=".81" height=".81" x="18" y="12" fill="#FFE0E0" /><rect width=".81" height=".81" x="19" y="12" fill="#FFE6E6" /><rect width=".81" height=".81" x="20" y="12" fill="#D4D4FF" /><rect width=".81" height=".81" x="21" y="12" fill="#E9E9FF" /><rect width=".81" height=".81" x="22" y="12" fill="#FFFCFC" /><rect width=".81" height=".81" x="23" y="12" fill="#FEFCFE" /><rect width=".81" height=".81" x="24" y="12" fill="#FEFCFE" /><rect width=".81" height=".81" x="25" y="12" fill="#FEFCFE" /><rect width=".81" height=".81" x="26" y="12" fill="#FEFCFE" /><rect width=".81" height=".81" x="27" y="12" fill="#FEFCFE" /><rect width=".81" height=".81" x="0" y="13" fill="#FEFCFE" /><rect width=".81" height=".81" x="1" y="13" fill="#FEFCFE" /><rect width=".81" height=".81" x="2" y="13" fill="#FEFCFE" /><rect width=".81" height=".81" x="3" y="13" fill="#FEFCFE" /><rect width=".81" height=".81" x="4" y="13" fill="#FEFCFE" /><rect width=".81" height=".81" x="5" y="13" fill="#FEFCFE" /><rect width=".81" height=".81" x="6" y="13" fill="#FFF8F8" /><rect width=".81" height=".81" x="7" y="13" fill="#FFCDCD" /><rect width=".81" height=".81" x="8" y="13" fill="#FFA7A7" /><rect width=".81" height=".81" x="9" y="13" fill="#FF7070" /><rect width=".81" height=".81" x="10" y="13" fill="#FFDBDB" /><rect width=".81" height=".81" x="11" y="13" fill="#FFAAAA" /><rect width=".81" height=".81" x="12" y="13" fill="#FF7979" /><rect width=".81" height=".81" x="13" y="13" fill="#FFE5E5" /><rect width=".81" height=".81" x="14" y="13" fill="#FFB3B3" /><rect width=".81" height=".81" x="15" y="13" fill="#FFEAEA" /><rect width=".81" height=".81" x="16" y="13" fill="#FFACAC" /><rect width=".81" height=".81" x="17" y="13" fill="#FFBEBE" /><rect width=".81" height=".81" x="18" y="13" fill="#FFD6D6" /><rect width=".81" height=".81" x="19" y="13" fill="#FFF5F5" /><rect width=".81" height=".81" x="20" y="13" fill="#F5F5FF" /><rect width=".81" height=".81" x="21" y="13" fill="#CECEFF" /><rect width=".81" height=".81" x="22" y="13" fill="#F8F8FF" /><rect width=".81" height=".81" x="23" y="13" fill="#FEFCFE" /><rect width=".81" height=".81" x="24" y="13" fill="#FEFCFE" /><rect width=".81" height=".81" x="25" y="13" fill="#FEFCFE" /><rect width=".81" height=".81" x="26" y="13" fill="#FEFCFE" /><rect width=".81" height=".81" x="27" y="13" fill="#FEFCFE" /><rect width=".81" height=".81" x="0" y="14" fill="#FEFCFE" /><rect width=".81" height=".81" x="1" y="14" fill="#FEFCFE" /><rect width=".81" height=".81" x="2" y="14" fill="#FEFCFE" /><rect width=".81" height=".81" x="3" y="14" fill="#FEFCFE" /><rect width=".81" height=".81" x="4" y="14" fill="#FEFCFE" /><rect width=".81" height=".81" x="5" y="14" fill="#FEFCFE" /><rect width=".81" height=".81" x="6" y="14" fill="#FEFCFE" /><rect width=".81" height=".81" x="7" y="14" fill="#FFD3D3" /><rect width=".81" height=".81" x="8" y="14" fill="#FF7676" /><rect width=".81" height=".81" x="9" y="14" fill="#FF0000" /><rect width=".81" height=".81" x="10" y="14" fill="#FF0000" /><rect width=".81" height=".81" x="11" y="14" fill="#FF0202" /><rect width=".81" height=".81" x="12" y="14" fill="#FF0F0F" /><rect width=".81" height=".81" x="13" y="14" fill="#FFA9A9" /><rect width=".81" height=".81" x="14" y="14" fill="#FF2B2B" /><rect width=".81" height=".81" x="15" y="14" fill="#FFACAC" /><rect width=".81" height=".81" x="16" y="14" fill="#FF9B9B" /><rect width=".81" height=".81" x="17" y="14" fill="#FFA9A9" /><rect width=".81" height=".81" x="18" y="14" fill="#FFC5C5" /><rect width=".81" height=".81" x="19" y="14" fill="#FFE9E9" /><rect width=".81" height=".81" x="20" y="14" fill="#FFFAFA" /><rect width=".81" height=".81" x="21" y="14" fill="#FDFCFF" /><rect width=".81" height=".81" x="22" y="14" fill="#FEFCFE" /><rect width=".81" height=".81" x="23" y="14" fill="#FEFCFE" /><rect width=".81" height=".81" x="24" y="14" fill="#FEFCFE" /><rect width=".81" height=".81" x="25" y="14" fill="#FEFCFE" /><rect width=".81" height=".81" x="26" y="14" fill="#FEFCFE" /><rect width=".81" height=".81" x="27" y="14" fill="#FEFCFE" /><rect width=".81" height=".81" x="0" y="15" fill="#FEFCFE" /><rect width=".81" height=".81" x="1" y="15" fill="#FEFCFE" /><rect width=".81" height=".81" x="2" y="15" fill="#FEFCFE" /><rect width=".81" height=".81" x="3" y="15" fill="#FEFCFE" /><rect width=".81" height=".81" x="4" y="15" fill="#FEFCFE" /><rect width=".81" height=".81" x="5" y="15" fill="#FEFCFE" /><rect width=".81" height=".81" x="6" y="15" fill="#FEFCFE" /><rect width=".81" height=".81" x="7" y="15" fill="#FEFCFE" /><rect width=".81" height=".81" x="8" y="15" fill="#FFF9F9" /><rect width=".81" height=".81" x="9" y="15" fill="#FFA2A2" /><rect width=".81" height=".81" x="10" y="15" fill="#FFB8B8" /><rect width=".81" height=".81" x="11" y="15" fill="#FF7B7B" /><rect width=".81" height=".81" x="12" y="15" fill="#FF9292" /><rect width=".81" height=".81" x="13" y="15" fill="#FFAFAF" /><rect width=".81" height=".81" x="14" y="15" fill="#FF9999" /><rect width=".81" height=".81" x="15" y="15" fill="#FF7575" /><rect width=".81" height=".81" x="16" y="15" fill="#FFC5C5" /><rect width=".81" height=".81" x="17" y="15" fill="#FFBFBF" /><rect width=".81" height=".81" x="18" y="15" fill="#FFC2C2" /><rect width=".81" height=".81" x="19" y="15" fill="#FFECEC" /><rect width=".81" height=".81" x="20" y="15" fill="#FEFCFD" /><rect width=".81" height=".81" x="21" y="15" fill="#FEFCFE" /><rect width=".81" height=".81" x="22" y="15" fill="#FEFCFE" /><rect width=".81" height=".81" x="23" y="15" fill="#FEFCFE" /><rect width=".81" height=".81" x="24" y="15" fill="#FEFCFE" /><rect width=".81" height=".81" x="25" y="15" fill="#FEFCFE" /><rect width=".81" height=".81" x="26" y="15" fill="#FEFCFE" /><rect width=".81" height=".81" x="27" y="15" fill="#FEFCFE" /><rect width=".81" height=".81" x="0" y="16" fill="#FEFCFE" /><rect width=".81" height=".81" x="1" y="16" fill="#FEFCFE" /><rect width=".81" height=".81" x="2" y="16" fill="#FEFCFE" /><rect width=".81" height=".81" x="3" y="16" fill="#FEFCFE" /><rect width=".81" height=".81" x="4" y="16" fill="#FEFCFE" /><rect width=".81" height=".81" x="5" y="16" fill="#FEFCFE" /><rect width=".81" height=".81" x="6" y="16" fill="#FEFCFE" /><rect width=".81" height=".81" x="7" y="16" fill="#FEFCFE" /><rect width=".81" height=".81" x="8" y="16" fill="#FEFCFE" /><rect width=".81" height=".81" x="9" y="16" fill="#FEFCFE" /><rect width=".81" height=".81" x="10" y="16" fill="#FEFCFE" /><rect width=".81" height=".81" x="11" y="16" fill="#FEFCFE" /><rect width=".81" height=".81" x="12" y="16" fill="#FEFCFE" /><rect width=".81" height=".81" x="13" y="16" fill="#FEFCFE" /><rect width=".81" height=".81" x="14" y="16" fill="#FFC8C8" /><rect width=".81" height=".81" x="15" y="16" fill="#FF5858" /><rect width=".81" height=".81" x="16" y="16" fill="#FFA4A4" /><rect width=".81" height=".81" x="17" y="16" fill="#FFB5B5" /><rect width=".81" height=".81" x="18" y="16" fill="#FFF0F0" /><rect width=".81" height=".81" x="19" y="16" fill="#FEFCFE" /><rect width=".81" height=".81" x="20" y="16" fill="#FEFCFE" /><rect width=".81" height=".81" x="21" y="16" fill="#FEFCFE" /><rect width=".81" height=".81" x="22" y="16" fill="#FEFCFE" /><rect width=".81" height=".81" x="23" y="16" fill="#FEFCFE" /><rect width=".81" height=".81" x="24" y="16" fill="#FEFCFE" /><rect width=".81" height=".81" x="25" y="16" fill="#FEFCFE" /><rect width=".81" height=".81" x="26" y="16" fill="#FEFCFE" /><rect width=".81" height=".81" x="27" y="16" fill="#FEFCFE" /><rect width=".81" height=".81" x="0" y="17" fill="#FEFCFE" /><rect width=".81" height=".81" x="1" y="17" fill="#FEFCFE" /><rect width=".81" height=".81" x="2" y="17" fill="#FEFCFE" /><rect width=".81" height=".81" x="3" y="17" fill="#FEFCFE" /><rect width=".81" height=".81" x="4" y="17" fill="#FEFCFE" /><rect width=".81" height=".81" x="5" y="17" fill="#FEFCFE" /><rect width=".81" height=".81" x="6" y="17" fill="#FEFCFE" /><rect width=".81" height=".81" x="7" y="17" fill="#FEFCFE" /><rect width=".81" height=".81" x="8" y="17" fill="#FEFCFE" /><rect width=".81" height=".81" x="9" y="17" fill="#FEFCFE" /><rect width=".81" height=".81" x="10" y="17" fill="#FEFCFE" /><rect width=".81" height=".81" x="11" y="17" fill="#FEFCFE" /><rect width=".81" height=".81" x="12" y="17" fill="#FEFCFE" /><rect width=".81" height=".81" x="13" y="17" fill="#FEFCFD" /><rect width=".81" height=".81" x="14" y="17" fill="#FFD1D1" /><rect width=".81" height=".81" x="15" y="17" fill="#FF9898" /><rect width=".81" height=".81" x="16" y="17" fill="#FFAAAA" /><rect width=".81" height=".81" x="17" y="17" fill="#FFFAFA" /><rect width=".81" height=".81" x="18" y="17" fill="#FEFCFE" /><rect width=".81" height=".81" x="19" y="17" fill="#FEFCFE" /><rect width=".81" height=".81" x="20" y="17" fill="#FEFCFE" /><rect width=".81" height=".81" x="21" y="17" fill="#FEFCFE" /><rect width=".81" height=".81" x="22" y="17" fill="#FEFCFE" /><rect width=".81" height=".81" x="23" y="17" fill="#FEFCFE" /><rect width=".81" height=".81" x="24" y="17" fill="#FEFCFE" /><rect width=".81" height=".81" x="25" y="17" fill="#FEFCFE" /><rect width=".81" height=".81" x="26" y="17" fill="#FEFCFE" /><rect width=".81" height=".81" x="27" y="17" fill="#FEFCFE" /><rect width=".81" height=".81" x="0" y="18" fill="#FEFCFE" /><rect width=".81" height=".81" x="1" y="18" fill="#FEFCFE" /><rect width=".81" height=".81" x="2" y="18" fill="#FEFCFE" /><rect width=".81" height=".81" x="3" y="18" fill="#FEFCFE" /><rect width=".81" height=".81" x="4" y="18" fill="#FEFCFE" /><rect width=".81" height=".81" x="5" y="18" fill="#FEFCFE" /><rect width=".81" height=".81" x="6" y="18" fill="#FEFCFE" /><rect width=".81" height=".81" x="7" y="18" fill="#FEFCFE" /><rect width=".81" height=".81" x="8" y="18" fill="#FEFCFE" /><rect width=".81" height=".81" x="9" y="18" fill="#FEFCFE" /><rect width=".81" height=".81" x="10" y="18" fill="#FEFCFE" /><rect width=".81" height=".81" x="11" y="18" fill="#FEFCFE" /><rect width=".81" height=".81" x="12" y="18" fill="#BDBDFF" /><rect width=".81" height=".81" x="13" y="18" fill="#5F5FFF" /><rect width=".81" height=".81" x="14" y="18" fill="#FFF5F5" /><rect width=".81" height=".81" x="15" y="18" fill="#E5E5FF" /><rect width=".81" height=".81" x="16" y="18" fill="#FEFCFE" /><rect width=".81" height=".81" x="17" y="18" fill="#FDFCFE" /><rect width=".81" height=".81" x="18" y="18" fill="#FEFCFE" /><rect width=".81" height=".81" x="19" y="18" fill="#FEFCFE" /><rect width=".81" height=".81" x="20" y="18" fill="#FEFCFE" /><rect width=".81" height=".81" x="21" y="18" fill="#FEFCFE" /><rect width=".81" height=".81" x="22" y="18" fill="#FEFCFE" /><rect width=".81" height=".81" x="23" y="18" fill="#FEFCFE" /><rect width=".81" height=".81" x="24" y="18" fill="#FEFCFE" /><rect width=".81" height=".81" x="25" y="18" fill="#FEFCFE" /><rect width=".81" height=".81" x="26" y="18" fill="#FEFCFE" /><rect width=".81" height=".81" x="27" y="18" fill="#FEFCFE" /><rect width=".81" height=".81" x="0" y="19" fill="#FEFCFE" /><rect width=".81" height=".81" x="1" y="19" fill="#FEFCFE" /><rect width=".81" height=".81" x="2" y="19" fill="#FEFCFE" /><rect width=".81" height=".81" x="3" y="19" fill="#FEFCFE" /><rect width=".81" height=".81" x="4" y="19" fill="#FEFCFE" /><rect width=".81" height=".81" x="5" y="19" fill="#FEFCFE" /><rect width=".81" height=".81" x="6" y="19" fill="#FEFCFE" /><rect width=".81" height=".81" x="7" y="19" fill="#FEFCFE" /><rect width=".81" height=".81" x="8" y="19" fill="#FEFCFE" /><rect width=".81" height=".81" x="9" y="19" fill="#FEFCFE" /><rect width=".81" height=".81" x="10" y="19" fill="#FEFCFE" /><rect width=".81" height=".81" x="11" y="19" fill="#D9D9FF" /><rect width=".81" height=".81" x="12" y="19" fill="#8383FF" /><rect width=".81" height=".81" x="13" y="19" fill="#A0A0FF" /><rect width=".81" height=".81" x="14" y="19" fill="#A0A0FF" /><rect width=".81" height=".81" x="15" y="19" fill="#9595FF" /><rect width=".81" height=".81" x="16" y="19" fill="#EDEDFF" /><rect width=".81" height=".81" x="17" y="19" fill="#FEFCFE" /><rect width=".81" height=".81" x="18" y="19" fill="#FEFCFE" /><rect width=".81" height=".81" x="19" y="19" fill="#FEFCFE" /><rect width=".81" height=".81" x="20" y="19" fill="#FEFCFE" /><rect width=".81" height=".81" x="21" y="19" fill="#FEFCFE" /><rect width=".81" height=".81" x="22" y="19" fill="#FEFCFE" /><rect width=".81" height=".81" x="23" y="19" fill="#FEFCFE" /><rect width=".81" height=".81" x="24" y="19" fill="#FEFCFE" /><rect width=".81" height=".81" x="25" y="19" fill="#FEFCFE" /><rect width=".81" height=".81" x="26" y="19" fill="#FEFCFE" /><rect width=".81" height=".81" x="27" y="19" fill="#FEFCFE" /><rect width=".81" height=".81" x="0" y="20" fill="#FEFCFE" /><rect width=".81" height=".81" x="1" y="20" fill="#FEFCFE" /><rect width=".81" height=".81" x="2" y="20" fill="#FEFCFE" /><rect width=".81" height=".81" x="3" y="20" fill="#FEFCFE" /><rect width=".81" height=".81" x="4" y="20" fill="#FEFCFE" /><rect width=".81" height=".81" x="5" y="20" fill="#FEFCFE" /><rect width=".81" height=".81" x="6" y="20" fill="#FEFCFE" /><rect width=".81" height=".81" x="7" y="20" fill="#FEFCFE" /><rect width=".81" height=".81" x="8" y="20" fill="#FEFCFE" /><rect width=".81" height=".81" x="9" y="20" fill="#FEFCFE" /><rect width=".81" height=".81" x="10" y="20" fill="#FEFCFE" /><rect width=".81" height=".81" x="11" y="20" fill="#CFCFFF" /><rect width=".81" height=".81" x="12" y="20" fill="#9494FF" /><rect width=".81" height=".81" x="13" y="20" fill="#A9A9FF" /><rect width=".81" height=".81" x="14" y="20" fill="#BFBFFF" /><rect width=".81" height=".81" x="15" y="20" fill="#E5E5FF" /><rect width=".81" height=".81" x="16" y="20" fill="#FEFCFE" /><rect width=".81" height=".81" x="17" y="20" fill="#FEFCFE" /><rect width=".81" height=".81" x="18" y="20" fill="#FEFCFE" /><rect width=".81" height=".81" x="19" y="20" fill="#FEFCFE" /><rect width=".81" height=".81" x="20" y="20" fill="#FEFCFE" /><rect width=".81" height=".81" x="21" y="20" fill="#FEFCFE" /><rect width=".81" height=".81" x="22" y="20" fill="#FEFCFE" /><rect width=".81" height=".81" x="23" y="20" fill="#FEFCFE" /><rect width=".81" height=".81" x="24" y="20" fill="#FEFCFE" /><rect width=".81" height=".81" x="25" y="20" fill="#FEFCFE" /><rect width=".81" height=".81" x="26" y="20" fill="#FEFCFE" /><rect width=".81" height=".81" x="27" y="20" fill="#FEFCFE" /><rect width=".81" height=".81" x="0" y="21" fill="#FEFCFE" /><rect width=".81" height=".81" x="1" y="21" fill="#FEFCFE" /><rect width=".81" height=".81" x="2" y="21" fill="#FEFCFE" /><rect width=".81" height=".81" x="3" y="21" fill="#FEFCFE" /><rect width=".81" height=".81" x="4" y="21" fill="#FEFCFE" /><rect width=".81" height=".81" x="5" y="21" fill="#FEFCFE" /><rect width=".81" height=".81" x="6" y="21" fill="#FEFCFE" /><rect width=".81" height=".81" x="7" y="21" fill="#FEFCFE" /><rect width=".81" height=".81" x="8" y="21" fill="#FEFCFE" /><rect width=".81" height=".81" x="9" y="21" fill="#FEFCFE" /><rect width=".81" height=".81" x="10" y="21" fill="#FBFBFF" /><rect width=".81" height=".81" x="11" y="21" fill="#AFAFFF" /><rect width=".81" height=".81" x="12" y="21" fill="#7777FF" /><rect width=".81" height=".81" x="13" y="21" fill="#9B9BFF" /><rect width=".81" height=".81" x="14" y="21" fill="#EFEFFF" /><rect width=".81" height=".81" x="15" y="21" fill="#FEFCFE" /><rect width=".81" height=".81" x="16" y="21" fill="#FEFCFE" /><rect width=".81" height=".81" x="17" y="21" fill="#FEFCFE" /><rect width=".81" height=".81" x="18" y="21" fill="#FEFCFE" /><rect width=".81" height=".81" x="19" y="21" fill="#FEFCFE" /><rect width=".81" height=".81" x="20" y="21" fill="#FEFCFE" /><rect width=".81" height=".81" x="21" y="21" fill="#FEFCFE" /><rect width=".81" height=".81" x="22" y="21" fill="#FEFCFE" /><rect width=".81" height=".81" x="23" y="21" fill="#FEFCFE" /><rect width=".81" height=".81" x="24" y="21" fill="#FEFCFE" /><rect width=".81" height=".81" x="25" y="21" fill="#FEFCFE" /><rect width=".81" height=".81" x="26" y="21" fill="#FEFCFE" /><rect width=".81" height=".81" x="27" y="21" fill="#FEFCFE" /><rect width=".81" height=".81" x="0" y="22" fill="#FEFCFE" /><rect width=".81" height=".81" x="1" y="22" fill="#FEFCFE" /><rect width=".81" height=".81" x="2" y="22" fill="#FEFCFE" /><rect width=".81" height=".81" x="3" y="22" fill="#FEFCFE" /><rect width=".81" height=".81" x="4" y="22" fill="#FEFCFE" /><rect width=".81" height=".81" x="5" y="22" fill="#FEFCFE" /><rect width=".81" height=".81" x="6" y="22" fill="#FEFCFE" /><rect width=".81" height=".81" x="7" y="22" fill="#FEFCFE" /><rect width=".81" height=".81" x="8" y="22" fill="#FEFCFE" /><rect width=".81" height=".81" x="9" y="22" fill="#FEFCFE" /><rect width=".81" height=".81" x="10" y="22" fill="#E0E0FF" /><rect width=".81" height=".81" x="11" y="22" fill="#E2E2FF" /><rect width=".81" height=".81" x="12" y="22" fill="#ABABFF" /><rect width=".81" height=".81" x="13" y="22" fill="#C7C7FF" /><rect width=".81" height=".81" x="14" y="22" fill="#FEFCFE" /><rect width=".81" height=".81" x="15" y="22" fill="#FEFCFE" /><rect width=".81" height=".81" x="16" y="22" fill="#FEFCFE" /><rect width=".81" height=".81" x="17" y="22" fill="#FEFCFE" /><rect width=".81" height=".81" x="18" y="22" fill="#FEFCFE" /><rect width=".81" height=".81" x="19" y="22" fill="#FEFCFE" /><rect width=".81" height=".81" x="20" y="22" fill="#FEFCFE" /><rect width=".81" height=".81" x="21" y="22" fill="#FEFCFE" /><rect width=".81" height=".81" x="22" y="22" fill="#FEFCFE" /><rect width=".81" height=".81" x="23" y="22" fill="#FEFCFE" /><rect width=".81" height=".81" x="24" y="22" fill="#FEFCFE" /><rect width=".81" height=".81" x="25" y="22" fill="#FEFCFE" /><rect width=".81" height=".81" x="26" y="22" fill="#FEFCFE" /><rect width=".81" height=".81" x="27" y="22" fill="#FEFCFE" /><rect width=".81" height=".81" x="0" y="23" fill="#FEFCFE" /><rect width=".81" height=".81" x="1" y="23" fill="#FEFCFE" /><rect width=".81" height=".81" x="2" y="23" fill="#FEFCFE" /><rect width=".81" height=".81" x="3" y="23" fill="#FEFCFE" /><rect width=".81" height=".81" x="4" y="23" fill="#FEFCFE" /><rect width=".81" height=".81" x="5" y="23" fill="#FEFCFE" /><rect width=".81" height=".81" x="6" y="23" fill="#FEFCFE" /><rect width=".81" height=".81" x="7" y="23" fill="#FEFCFE" /><rect width=".81" height=".81" x="8" y="23" fill="#FEFCFE" /><rect width=".81" height=".81" x="9" y="23" fill="#FFEDED" /><rect width=".81" height=".81" x="10" y="23" fill="#FFE4E4" /><rect width=".81" height=".81" x="11" y="23" fill="#DADAFF" /><rect width=".81" height=".81" x="12" y="23" fill="#FFEBEB" /><rect width=".81" height=".81" x="13" y="23" fill="#F6F6FF" /><rect width=".81" height=".81" x="14" y="23" fill="#FEFCFE" /><rect width=".81" height=".81" x="15" y="23" fill="#FEFCFE" /><rect width=".81" height=".81" x="16" y="23" fill="#FEFCFE" /><rect width=".81" height=".81" x="17" y="23" fill="#FEFCFE" /><rect width=".81" height=".81" x="18" y="23" fill="#FEFCFE" /><rect width=".81" height=".81" x="19" y="23" fill="#FEFCFE" /><rect width=".81" height=".81" x="20" y="23" fill="#FEFCFE" /><rect width=".81" height=".81" x="21" y="23" fill="#FEFCFE" /><rect width=".81" height=".81" x="22" y="23" fill="#FEFCFE" /><rect width=".81" height=".81" x="23" y="23" fill="#FEFCFE" /><rect width=".81" height=".81" x="24" y="23" fill="#FEFCFE" /><rect width=".81" height=".81" x="25" y="23" fill="#FEFCFE" /><rect width=".81" height=".81" x="26" y="23" fill="#FEFCFE" /><rect width=".81" height=".81" x="27" y="23" fill="#FEFCFE" /><rect width=".81" height=".81" x="0" y="24" fill="#FEFCFE" /><rect width=".81" height=".81" x="1" y="24" fill="#FEFCFE" /><rect width=".81" height=".81" x="2" y="24" fill="#FEFCFE" /><rect width=".81" height=".81" x="3" y="24" fill="#FEFCFE" /><rect width=".81" height=".81" x="4" y="24" fill="#FEFCFE" /><rect width=".81" height=".81" x="5" y="24" fill="#FEFCFE" /><rect width=".81" height=".81" x="6" y="24" fill="#FEFCFE" /><rect width=".81" height=".81" x="7" y="24" fill="#FEFCFE" /><rect width=".81" height=".81" x="8" y="24" fill="#FEFCFE" /><rect width=".81" height=".81" x="9" y="24" fill="#FFBCBC" /><rect width=".81" height=".81" x="10" y="24" fill="#FFEBEB" /><rect width=".81" height=".81" x="11" y="24" fill="#F4F4FF" /><rect width=".81" height=".81" x="12" y="24" fill="#FFF5F5" /><rect width=".81" height=".81" x="13" y="24" fill="#FEFCFE" /><rect width=".81" height=".81" x="14" y="24" fill="#FEFCFE" /><rect width=".81" height=".81" x="15" y="24" fill="#FEFCFE" /><rect width=".81" height=".81" x="16" y="24" fill="#FEFCFE" /><rect width=".81" height=".81" x="17" y="24" fill="#FEFCFE" /><rect width=".81" height=".81" x="18" y="24" fill="#FEFCFE" /><rect width=".81" height=".81" x="19" y="24" fill="#FEFCFE" /><rect width=".81" height=".81" x="20" y="24" fill="#FEFCFE" /><rect width=".81" height=".81" x="21" y="24" fill="#FEFCFE" /><rect width=".81" height=".81" x="22" y="24" fill="#FEFCFE" /><rect width=".81" height=".81" x="23" y="24" fill="#FEFCFE" /><rect width=".81" height=".81" x="24" y="24" fill="#FEFCFE" /><rect width=".81" height=".81" x="25" y="24" fill="#FEFCFE" /><rect width=".81" height=".81" x="26" y="24" fill="#FEFCFE" /><rect width=".81" height=".81" x="27" y="24" fill="#FEFCFE" /><rect width=".81" height=".81" x="0" y="25" fill="#FEFCFE" /><rect width=".81" height=".81" x="1" y="25" fill="#FEFCFE" /><rect width=".81" height=".81" x="2" y="25" fill="#FEFCFE" /><rect width=".81" height=".81" x="3" y="25" fill="#FEFCFE" /><rect width=".81" height=".81" x="4" y="25" fill="#FEFCFE" /><rect width=".81" height=".81" x="5" y="25" fill="#FEFCFE" /><rect width=".81" height=".81" x="6" y="25" fill="#FEFCFE" /><rect width=".81" height=".81" x="7" y="25" fill="#FEFCFE" /><rect width=".81" height=".81" x="8" y="25" fill="#FEFCFE" /><rect width=".81" height=".81" x="9" y="25" fill="#FFC9C9" /><rect width=".81" height=".81" x="10" y="25" fill="#FFF6F6" /><rect width=".81" height=".81" x="11" y="25" fill="#F4F4FF" /><rect width=".81" height=".81" x="12" y="25" fill="#FEFCFD" /><rect width=".81" height=".81" x="13" y="25" fill="#FEFCFE" /><rect width=".81" height=".81" x="14" y="25" fill="#FEFCFE" /><rect width=".81" height=".81" x="15" y="25" fill="#FEFCFE" /><rect width=".81" height=".81" x="16" y="25" fill="#FEFCFE" /><rect width=".81" height=".81" x="17" y="25" fill="#FEFCFE" /><rect width=".81" height=".81" x="18" y="25" fill="#FEFCFE" /><rect width=".81" height=".81" x="19" y="25" fill="#FEFCFE" /><rect width=".81" height=".81" x="20" y="25" fill="#FEFCFE" /><rect width=".81" height=".81" x="21" y="25" fill="#FEFCFE" /><rect width=".81" height=".81" x="22" y="25" fill="#FEFCFE" /><rect width=".81" height=".81" x="23" y="25" fill="#FEFCFE" /><rect width=".81" height=".81" x="24" y="25" fill="#FEFCFE" /><rect width=".81" height=".81" x="25" y="25" fill="#FEFCFE" /><rect width=".81" height=".81" x="26" y="25" fill="#FEFCFE" /><rect width=".81" height=".81" x="27" y="25" fill="#FEFCFE" /><rect width=".81" height=".81" x="0" y="26" fill="#FEFCFE" /><rect width=".81" height=".81" x="1" y="26" fill="#FEFCFE" /><rect width=".81" height=".81" x="2" y="26" fill="#FEFCFE" /><rect width=".81" height=".81" x="3" y="26" fill="#FEFCFE" /><rect width=".81" height=".81" x="4" y="26" fill="#FEFCFE" /><rect width=".81" height=".81" x="5" y="26" fill="#FEFCFE" /><rect width=".81" height=".81" x="6" y="26" fill="#FEFCFE" /><rect width=".81" height=".81" x="7" y="26" fill="#FEFCFE" /><rect width=".81" height=".81" x="8" y="26" fill="#FEFCFE" /><rect width=".81" height=".81" x="9" y="26" fill="#FFF5F5" /><rect width=".81" height=".81" x="10" y="26" fill="#FFF4F4" /><rect width=".81" height=".81" x="11" y="26" fill="#F9F9FF" /><rect width=".81" height=".81" x="12" y="26" fill="#FEFCFE" /><rect width=".81" height=".81" x="13" y="26" fill="#FEFCFE" /><rect width=".81" height=".81" x="14" y="26" fill="#FEFCFE" /><rect width=".81" height=".81" x="15" y="26" fill="#FEFCFE" /><rect width=".81" height=".81" x="16" y="26" fill="#FEFCFE" /><rect width=".81" height=".81" x="17" y="26" fill="#FEFCFE" /><rect width=".81" height=".81" x="18" y="26" fill="#FEFCFE" /><rect width=".81" height=".81" x="19" y="26" fill="#FEFCFE" /><rect width=".81" height=".81" x="20" y="26" fill="#FEFCFE" /><rect width=".81" height=".81" x="21" y="26" fill="#FEFCFE" /><rect width=".81" height=".81" x="22" y="26" fill="#FEFCFE" /><rect width=".81" height=".81" x="23" y="26" fill="#FEFCFE" /><rect width=".81" height=".81" x="24" y="26" fill="#FEFCFE" /><rect width=".81" height=".81" x="25" y="26" fill="#FEFCFE" /><rect width=".81" height=".81" x="26" y="26" fill="#FEFCFE" /><rect width=".81" height=".81" x="27" y="26" fill="#FEFCFE" /><rect width=".81" height=".81" x="0" y="27" fill="#FEFCFE" /><rect width=".81" height=".81" x="1" y="27" fill="#FEFCFE" /><rect width=".81" height=".81" x="2" y="27" fill="#FEFCFE" /><rect width=".81" height=".81" x="3" y="27" fill="#FEFCFE" /><rect width=".81" height=".81" x="4" y="27" fill="#FEFCFE" /><rect width=".81" height=".81" x="5" y="27" fill="#FEFCFE" /><rect width=".81" height=".81" x="6" y="27" fill="#FEFCFE" /><rect width=".81" height=".81" x="7" y="27" fill="#FEFCFE" /><rect width=".81" height=".81" x="8" y="27" fill="#FEFCFE" /><rect width=".81" height=".81" x="9" y="27" fill="#FEFCFE" /><rect width=".81" height=".81" x="10" y="27" fill="#FEFCFE" /><rect width=".81" height=".81" x="11" y="27" fill="#FEFCFE" /><rect width=".81" height=".81" x="12" y="27" fill="#FEFCFE" /><rect width=".81" height=".81" x="13" y="27" fill="#FEFCFE" /><rect width=".81" height=".81" x="14" y="27" fill="#FEFCFE" /><rect width=".81" height=".81" x="15" y="27" fill="#FEFCFE" /><rect width=".81" height=".81" x="16" y="27" fill="#FEFCFE" /><rect width=".81" height=".81" x="17" y="27" fill="#FEFCFE" /><rect width=".81" height=".81" x="18" y="27" fill="#FEFCFE" /><rect width=".81" height=".81" x="19" y="27" fill="#FEFCFE" /><rect width=".81" height=".81" x="20" y="27" fill="#FEFCFE" /><rect width=".81" height=".81" x="21" y="27" fill="#FEFCFE" /><rect width=".81" height=".81" x="22" y="27" fill="#FEFCFE" /><rect width=".81" height=".81" x="23" y="27" fill="#FEFCFE" /><rect width=".81" height=".81" x="24" y="27" fill="#FEFCFE" /><rect width=".81" height=".81" x="25" y="27" fill="#FEFCFE" /><rect width=".81" height=".81" x="26" y="27" fill="#FEFCFE" /><rect width=".81" height=".81" x="27" y="27" fill="#FEFCFE" /></svg>